<?xml version="1.0" standalone="no"?>
<!DOCTYPE svg PUBLIC "-//W3C//DTD SVG 20010904//EN"
 "http://www.w3.org/TR/2001/REC-SVG-20010904/DTD/svg10.dtd">
<svg version="1.0" xmlns="http://www.w3.org/2000/svg"
 width="614.000000pt" height="614.000000pt" viewBox="0 0 614.000000 614.000000"
 preserveAspectRatio="xMidYMid meet">
<metadata>
Created by potrace 1.11, written by Peter Selinger 2001-2013
</metadata>
<g transform="translate(0.000000,614.000000) scale(0.100000,-0.100000)"
fill="#000000" stroke="none">
<path d="M920 6087 c-15 -12 -110 -170 -110 -183 0 -3 -17 -36 -37 -72 -21
-37 -39 -74 -41 -82 -10 -49 -14 -98 -15 -205 -2 -93 -6 -127 -18 -146 -35
-52 -96 -29 -157 61 -23 33 -42 63 -42 65 0 3 -20 47 -44 98 -24 50 -50 110
-57 132 -8 22 -18 43 -24 47 -5 4 -7 8 -2 8 4 0 0 14 -9 31 -8 17 -17 38 -19
47 -13 65 -56 109 -94 97 -98 -31 -186 -376 -146 -568 13 -60 49 -143 82 -186
49 -65 107 -131 114 -131 5 0 17 -17 28 -38 29 -56 19 -102 -38 -192 -81 -127
-100 -206 -110 -470 l-8 -195 -55 -115 c-59 -123 -79 -189 -103 -340 -19 -118
-19 -211 -2 -253 14 -31 95 -107 120 -111 7 -1 17 -4 22 -8 32 -19 161 -50
226 -53 171 -9 320 63 508 245 97 93 121 107 168 96 75 -18 230 -158 312 -281
61 -90 127 -214 142 -266 7 -22 20 -43 28 -48 21 -9 4123 -7 4139 3 7 4 10 11
8 15 -3 4 -1 26 5 49 5 23 12 59 15 80 3 20 7 47 10 60 2 12 6 32 8 45 3 12 7
45 11 72 3 28 8 64 10 80 22 150 33 380 21 440 -19 99 -27 126 -48 168 -10 20
-16 37 -13 37 2 0 -8 21 -23 48 -16 26 -34 62 -41 80 -7 17 -16 32 -20 32 -3
0 -15 18 -25 40 -11 22 -23 40 -27 40 -4 0 -31 26 -61 57 -126 135 -161 160
-263 193 -22 7 -80 32 -130 56 -133 63 -226 89 -315 87 -74 -1 -254 -38 -405
-84 -38 -11 -99 -29 -135 -39 -36 -10 -92 -27 -125 -38 -33 -11 -98 -32 -145
-45 -47 -14 -109 -35 -137 -46 -29 -12 -53 -18 -53 -15 0 4 -6 2 -12 -4 -7 -5
-35 -17 -63 -25 -27 -9 -75 -25 -105 -37 -46 -17 -158 -51 -220 -65 -8 -2 -16
-4 -17 -5 -2 -2 -12 -4 -23 -5 -11 -1 -21 -4 -22 -5 -3 -3 -16 -5 -93 -16 -47
-7 -392 -10 -463 -4 -18 2 -35 7 -38 11 -2 5 -11 6 -19 2 -9 -3 -21 -1 -28 4
-6 5 -31 15 -54 23 -24 7 -43 17 -43 22 0 5 -4 7 -9 4 -5 -3 -28 8 -52 24 -40
26 -75 56 -224 190 -283 256 -460 386 -605 448 -91 38 -333 117 -391 127 -50
9 -80 24 -110 57 -44 48 -51 90 -33 185 6 36 11 86 9 112 -4 60 -82 310 -133
430 -56 128 -90 162 -132 128z m3282 -2229 c21 -69 38 -108 48 -110 8 -2 75
-3 148 -3 72 1 132 -2 132 -5 -1 -5 -36 -32 -126 -95 -31 -22 -68 -49 -82 -60
l-24 -21 41 -131 c23 -71 41 -133 41 -137 0 -7 -42 13 -50 24 -3 4 -27 22 -55
41 -27 19 -66 46 -86 62 -20 15 -41 27 -46 27 -6 0 -30 -16 -53 -35 -23 -19
-45 -35 -48 -35 -6 0 -21 -11 -78 -58 -13 -11 -51 -32 -58 -32 -2 0 5 26 16
58 11 31 22 64 23 72 2 8 13 44 25 80 25 75 40 53 -114 164 -53 39 -96 73 -96
76 0 3 59 6 131 6 71 -1 138 2 148 5 10 4 25 31 36 65 10 33 27 86 37 119 30
95 29 93 43 60 8 -16 29 -78 47 -137z m974 117 c8 -22 16 -47 19 -55 2 -8 15
-51 29 -95 l25 -80 146 1 c80 0 145 -2 145 -5 0 -3 -41 -35 -90 -71 -50 -36
-102 -74 -116 -86 l-25 -21 40 -124 c43 -131 47 -149 31 -149 -5 0 -10 4 -10
9 0 5 -8 12 -17 15 -10 3 -30 17 -45 31 -16 14 -28 22 -28 18 0 -4 -4 -3 -8 2
-10 15 -108 85 -118 85 -4 0 -36 -21 -71 -47 -138 -103 -152 -113 -162 -113
-6 0 -2 22 9 53 11 30 31 92 45 138 29 98 42 74 -109 183 -53 39 -96 73 -96
76 0 4 61 7 137 6 77 -1 141 3 148 9 14 11 69 170 81 230 8 45 22 41 40 -10z
m-3097 -2 c7 -21 16 -47 20 -58 22 -54 45 -132 44 -147 -2 -21 -11 -20 171
-21 l139 -1 -34 -28 c-19 -16 -73 -57 -120 -91 l-87 -62 43 -130 c24 -71 41
-133 38 -138 -2 -4 -25 8 -50 25 -25 18 -55 40 -67 48 -11 8 -39 29 -60 47
-22 18 -45 33 -52 33 -6 0 -57 -34 -113 -75 -55 -41 -105 -75 -111 -75 -16 0
-12 19 30 145 22 65 40 120 40 121 0 1 -52 39 -116 84 -64 45 -113 85 -109 88
4 4 67 7 141 8 74 0 138 5 143 10 4 5 16 38 26 74 9 36 22 76 28 90 6 14 11
27 12 30 17 72 25 76 44 23z m1031 8 c0 -9 4 -21 9 -26 5 -6 21 -50 35 -100
14 -49 32 -94 40 -100 7 -6 73 -10 149 -9 76 0 137 -2 137 -6 0 -4 -37 -33
-82 -65 -46 -33 -87 -63 -93 -67 -5 -4 -21 -16 -34 -27 l-25 -18 32 -90 c18
-50 35 -99 37 -109 2 -10 7 -29 11 -41 3 -13 3 -23 0 -23 -15 0 -62 29 -80 49
-11 12 -23 21 -28 21 -5 0 -31 18 -59 40 -28 22 -55 40 -60 40 -5 0 -47 -28
-94 -62 -122 -89 -145 -103 -145 -86 0 7 13 47 28 88 16 41 29 80 30 85 2 6 7
27 13 48 12 45 10 48 -49 89 -26 17 -49 34 -52 37 -3 4 -31 24 -62 45 -32 22
-58 42 -58 46 0 3 60 6 133 5 72 0 139 1 147 3 9 2 30 48 54 125 22 67 41 125
43 130 7 12 23 -3 23 -22z"/>
<path d="M1629 2912 c-36 -2 -48 -7 -52 -22 -3 -10 -2 -21 1 -25 3 -3 7 -11 8
-18 7 -32 14 -60 19 -77 3 -10 7 -27 9 -37 2 -10 9 -38 16 -63 7 -25 14 -52
15 -60 2 -8 4 -15 5 -15 2 0 6 -18 15 -64 3 -19 17 -78 32 -130 14 -53 27
-103 28 -111 2 -8 4 -15 5 -15 1 0 3 -7 5 -15 2 -8 11 -42 20 -75 9 -33 18
-64 19 -70 2 -5 6 -19 10 -30 5 -11 12 -32 17 -46 6 -14 9 -30 8 -35 -1 -5 0
-11 1 -14 3 -6 8 -101 15 -265 2 -66 7 -167 11 -225 12 -199 8 -282 -17 -340
-58 -134 -56 -127 -64 -215 -3 -33 -7 -94 -9 -135 -3 -78 -14 -107 -61 -163
-16 -18 -78 -101 -95 -127 -8 -13 -25 -35 -37 -50 -13 -15 -23 -33 -23 -38 0
-6 -6 -17 -13 -24 -15 -16 -67 -103 -84 -140 -31 -71 -20 -139 25 -156 41 -16
615 -11 634 6 10 8 17 39 20 97 3 47 11 92 18 100 7 8 27 15 45 15 27 0 40 -8
65 -40 26 -32 38 -40 65 -40 29 0 46 14 157 133 69 72 149 159 178 192 29 33
56 62 59 65 3 3 12 17 20 32 22 42 0 71 -90 125 -133 79 -151 102 -179 234
-11 52 -31 117 -45 145 -34 70 -46 141 -44 262 2 130 19 222 70 368 64 186
171 378 224 402 15 7 70 15 123 17 229 12 374 23 410 31 15 3 34 6 42 6 8 0
40 4 70 9 30 5 73 11 95 15 22 3 74 15 115 26 108 30 224 30 275 -1 22 -13 46
-32 54 -44 27 -38 247 -481 261 -526 8 -25 15 -74 15 -110 0 -54 -6 -78 -33
-134 -22 -45 -36 -92 -41 -140 -11 -98 -23 -121 -142 -283 -57 -78 -132 -179
-165 -225 -34 -46 -102 -136 -151 -199 -49 -64 -98 -131 -109 -150 -10 -19
-22 -37 -26 -40 -4 -3 -10 -23 -13 -45 -5 -35 -2 -45 24 -77 17 -20 52 -47 78
-60 43 -20 63 -23 188 -24 90 -1 154 3 177 11 60 20 112 81 173 200 123 239
112 223 231 340 116 114 125 136 123 293 -4 221 -6 215 74 284 38 33 102 90
141 128 39 37 99 94 134 126 108 100 123 196 57 341 -50 107 -77 192 -71 219
7 27 32 54 51 54 20 0 83 -57 91 -83 4 -11 12 -27 19 -34 7 -7 27 -47 45 -90
18 -42 42 -93 55 -112 46 -75 94 -196 100 -256 2 -22 7 -175 10 -340 l5 -300
-26 -60 c-63 -147 -67 -164 -69 -299 l-1 -128 -95 -92 c-52 -50 -119 -114
-149 -141 -58 -53 -92 -107 -83 -134 11 -32 53 -80 89 -102 57 -35 136 -49
259 -45 119 4 173 18 236 62 41 28 123 141 149 204 7 19 18 38 23 41 4 3 9 12
11 20 1 8 15 34 31 59 16 25 28 48 27 53 -1 4 2 7 7 7 5 0 17 19 26 42 14 36
18 85 21 283 6 368 8 406 27 442 10 18 21 33 26 33 5 0 22 30 37 67 33 78 39
194 12 238 -3 6 -17 55 -31 110 -14 55 -31 116 -37 135 -6 19 -13 43 -16 53
-8 31 -15 62 -19 82 -11 49 -14 62 -24 92 -5 17 -6 34 -3 38 4 3 1 9 -5 13
-18 11 -25 67 -28 223 -4 149 2 181 36 202 26 16 71 -8 101 -56 15 -23 49 -65
75 -94 100 -108 135 -147 145 -167 6 -11 12 -52 14 -91 1 -38 4 -80 7 -92 7
-26 36 -73 46 -73 14 0 49 -75 54 -115 11 -77 23 -105 47 -105 25 0 58 81 65
161 23 247 12 283 -107 363 -47 32 -81 67 -136 142 -101 137 -212 303 -213
320 -2 16 -5 33 -9 37 -4 5 -10 45 -14 90 -3 27 -7 51 -10 54 -5 6 -3924 10
-4007 5z"/>
</g>
</svg>
